<svg xmlns="http://www.w3.org/2000/svg" viewBox="0 0 1200 800" preserveAspectRatio="xMidYMid slice">
  <defs>
    <linearGradient id="sky" x1="0" y1="0" x2="0" y2="1">
      <stop offset="0%" stop-color="#155e75"/>
      <stop offset="28%" stop-color="#0e7490"/>
      <stop offset="55%" stop-color="#0c4a6e"/>
      <stop offset="78%" stop-color="#082f49"/>
      <stop offset="100%" stop-color="#000000"/>
    </linearGradient>
    <radialGradient id="sun" cx="0.5" cy="0.5" r="0.5">
      <stop offset="0%" stop-color="#ecfeff"/>
      <stop offset="40%" stop-color="#67e8f9"/>
      <stop offset="100%" stop-color="#0891b2"/>
    </radialGradient>
    <linearGradient id="aurora" x1="0" y1="0" x2="1" y2="0">
      <stop offset="0%" stop-color="#22d3ee" stop-opacity="0"/>
      <stop offset="30%" stop-color="#22d3ee" stop-opacity="0.45"/>
      <stop offset="55%" stop-color="#a5f3fc" stop-opacity="0.35"/>
      <stop offset="80%" stop-color="#38bdf8" stop-opacity="0.3"/>
      <stop offset="100%" stop-color="#22d3ee" stop-opacity="0"/>
    </linearGradient>
  </defs>
  <rect width="1200" height="800" fill="url(#sky)"/>
  <ellipse cx="600" cy="200" rx="580" ry="110" fill="url(#aurora)"/>
  <ellipse cx="420" cy="260" rx="260" ry="60" fill="#22d3ee" opacity="0.12"/>
  <circle cx="920" cy="150" r="86" fill="url(#sun)" opacity="0.95"/>
  <circle cx="920" cy="150" r="140" fill="#67e8f9" opacity="0.14"/>
  <circle cx="920" cy="150" r="200" fill="#22d3ee" opacity="0.08"/>
  <path d="M0 520 L180 340 L320 480 L480 280 L640 450 L820 300 L1000 420 L1200 260 L1200 800 L0 800 Z" fill="#0a1628"/>
  <path d="M0 580 L220 400 L400 540 L580 360 L760 500 L980 380 L1200 480 L1200 800 L0 800 Z" fill="#050a12" opacity="0.95"/>
  <path d="M0 650 Q300 580 600 640 T1200 600 L1200 800 L0 800 Z" fill="#000000"/>
</svg>
